<?xml version="1.0" encoding="utf-8"?>
<!-- Generator: Adobe Illustrator 21.0.2, SVG Export Plug-In . SVG Version: 6.00 Build 0)  -->
<svg version="1.1" id="Capa_1" xmlns="http://www.w3.org/2000/svg" xmlns:xlink="http://www.w3.org/1999/xlink" x="0px" y="0px"
	 viewBox="0 0 496 496" style="enable-background:new 0 0 496 496;" xml:space="preserve">
<path d="M456,128h-32.4C419.4,56.7,360.3,0,288,0S156.6,56.7,152.4,128H120c-22.1,0-40,17.9-40,40v137.4C34.7,313.1,0,352.5,0,400
	c0,52.9,43.1,96,96,96c35.4,0,66.4-19.4,83-48h277c22.1,0,40-17.9,40-40V168C496,145.9,478.1,128,456,128z M288,16
	c63.5,0,115.4,49.6,119.6,112h-24c-4.1-49.2-45.4-88-95.6-88s-91.5,38.8-95.6,88h-24C172.6,65.6,224.5,16,288,16z M367.6,128H208.4
	c4-40.4,38.2-72,79.6-72S363.6,87.6,367.6,128z M96,480c-44.1,0-80-35.9-80-80s35.9-80,80-80s80,35.9,80,80S140.1,480,96,480z
	 M480,408c0,13.2-10.8,24-24,24H186.4c3.6-10,5.6-20.8,5.6-32c0-52.9-43.1-96-96-96v-53.1l152,48v5.1c0,13.2,10.8,24,24,24h32
	c13.2,0,24-10.8,24-24v-4.2L480,251V408z M264,304v-40h48v40c0,4.4-3.6,8-8,8h-32C267.6,312,264,308.4,264,304z M480,234.2L328,283
	v-35h-80v34.1l-152-48V168c0-13.2,10.8-24,24-24h336c13.2,0,24,10.8,24,24V234.2z"/>
<rect x="248" y="344" width="16" height="16"/>
<rect x="280" y="344" width="16" height="16"/>
<rect x="312" y="344" width="16" height="16"/>
<polygon points="96,347.1 111.7,379.2 147,384.3 121.5,409.1 127.6,444.3 96,427.7 64.4,444.3 70.5,409.1 45,384.3 80.3,379.2 "/>
</svg>
