<?xml version="1.0" encoding="utf-8"?>
<!-- Generator: Adobe Illustrator 21.0.2, SVG Export Plug-In . SVG Version: 6.00 Build 0)  -->
<svg version="1.1" id="Capa_1" xmlns="http://www.w3.org/2000/svg" xmlns:xlink="http://www.w3.org/1999/xlink" x="0px" y="0px"
	 viewBox="0 0 496 496" style="enable-background:new 0 0 496 496;" xml:space="preserve">
<style type="text/css">
	.st0{fill:#333333;}
</style>
<g>
	<rect x="224" y="56" class="st0" width="200" height="16"/>
	<rect x="224" y="216" class="st0" width="200" height="16"/>
</g>
<rect x="224" y="376" class="st0" width="200" height="16"/>
<rect x="368" y="248" class="st0" width="16" height="16"/>
<g>
	<rect x="224" y="248" class="st0" width="128" height="16"/>
	<rect x="368" y="408" class="st0" width="16" height="16"/>
	<rect x="224" y="408" class="st0" width="128" height="16"/>
	<rect x="368" y="88" class="st0" width="16" height="16"/>
	<rect x="224" y="88" class="st0" width="128" height="16"/>
	<path class="st0" d="M165.6,143.2l-21.5-5.4C158.7,126,168,108.1,168,88V64c0-35.3-28.7-64-64-64S40,28.7,40,64v24
		c0,20.1,9.3,38,23.9,49.8l-21.5,5.4C17.4,149.4,0,171.7,0,197.5V272v8v24c0,13.2,10.8,24,24,24h16v168h128V328h16
		c13.2,0,24-10.8,24-24v-24v-8v-74.5C208,171.7,190.6,149.4,165.6,143.2z M56,88V64c0-26.5,21.5-48,48-48s48,21.5,48,48v24
		c0,26.5-21.5,48-48,48S56,114.5,56,88z M104,152c8,0,15.7-1.6,22.8-4.3l-0.8,3.1c-2.5,10.1-11.6,17.2-22.1,17.2
		s-19.5-7.1-22.1-17.2l-0.8-3.1C88.3,150.4,96,152,104,152z M16,304v-24h24v32H24C19.6,312,16,308.4,16,304z M56,464h40v16H56V464z
		 M112,480v-16h40v16H112z M152,448h-40V328H96v120H56V328v-8v-24h64v-16H56v-8v-60.6H40V264H16v-66.5c0-18.4,12.5-34.3,30.3-38.8
		l19.9-5l0.2,1C70.7,171.9,86.2,184,104,184s33.3-12.1,37.6-29.3l0.2-1l19.9,5c17.8,4.5,30.3,20.4,30.3,38.8V264h-24v-52.6h-16V272
		v8h-16v16h16v24v8V448z M192,304c0,4.4-3.6,8-8,8h-16v-32h24V304z"/>
</g>
<polygon class="st0" points="438,22.3 451.5,49.8 481.8,54.2 459.9,75.5 465.1,105.7 438,91.5 410.9,105.7 416.1,75.5 394.2,54.2 
	424.5,49.8 "/>
<polygon class="st0" points="438,177.6 451.5,205.1 481.8,209.5 459.9,230.8 465.1,261 438,246.8 410.9,261 416.1,230.8 
	394.2,209.5 424.5,205.1 "/>
<polygon class="st0" points="438,342.3 451.5,369.8 481.8,374.2 459.9,395.5 465.1,425.7 438,411.5 410.9,425.7 416.1,395.5 
	394.2,374.2 424.5,369.8 "/>
</svg>
